<svg xmlns="http://www.w3.org/2000/svg" width="124" height="124" viewBox="0 0 124 124"><defs><style>.a,.b{fill:none;stroke:#222;stroke-linecap:round;stroke-width:2.8381px;}.a{stroke-linejoin:round;}.b{stroke-miterlimit:10;}.c{fill:#ff6d3b;}.d{fill:#454545;}</style></defs><polyline class="a" points="113.063 89.499 121.27 96.637 121.27 121.143"/><line class="a" x1="89.964" y1="89.4986" x2="81.7566" y2="96.637"/><polyline class="a" points="10.937 89.499 2.73 96.637 2.73 121.143"/><line class="a" x1="34.0357" y1="89.4986" x2="42.2429" y2="96.637"/><line class="a" x1="50.4504" y1="89.4986" x2="42.2429" y2="96.637"/><polyline class="a" points="73.549 89.499 81.757 96.637 81.757 121.143"/><line class="b" x1="42.2429" y1="96.637" x2="42.2429" y2="121.3956"/><path class="b" d="M112.8573,76.584c0,7.1327-5.0788,12.9146-11.3438,12.9146S90.17,83.7167,90.17,76.584,95.2483,63.67,101.5135,63.67,112.8573,69.4518,112.8573,76.584Z"/><path class="b" d="M73.3439,76.584c0,7.1327-5.0788,12.9146-11.344,12.9146S50.6561,83.7167,50.6561,76.584,55.7349,63.67,62,63.67,73.3439,69.4518,73.3439,76.584Z"/><path class="b" d="M33.83,76.584c0,7.1327-5.0787,12.9146-11.3437,12.9146S11.1424,83.7167,11.1424,76.584,16.2212,63.67,22.4865,63.67,33.83,69.4518,33.83,76.584Z"/><path class="c" d="M22.4865,68.82a5.13,5.13,0,0,0-2.5755.7123,8.6814,8.6814,0,0,1,0,14.1031,5.1314,5.1314,0,0,0,2.5755.7121c3.4145,0,6.1928-3.4825,6.1928-7.7636S25.901,68.82,22.4865,68.82Z"/><path class="d" d="M62.4938,68.82a5.13,5.13,0,0,0-2.5755.7123,8.6814,8.6814,0,0,1,0,14.1031,5.1314,5.1314,0,0,0,2.5755.7121c3.4145,0,6.1928-3.4825,6.1928-7.7636S65.9083,68.82,62.4938,68.82Z"/><path class="c" d="M102.5014,68.82a5.1287,5.1287,0,0,0-2.5755.7123,8.6814,8.6814,0,0,1,0,14.1031,5.1305,5.1305,0,0,0,2.5755.7121c3.4144,0,6.1928-3.4825,6.1928-7.7636S105.9158,68.82,102.5014,68.82Z"/><polyline class="b" points="15.042 49.178 21.642 55.777 34.036 43.383"/><line class="b" x1="56.4243" y1="44.635" x2="67.5755" y2="55.786"/><line class="b" x1="67.5755" y1="44.635" x2="56.4243" y2="55.786"/><path class="b" d="M96.66,42.6206a4.8556,4.8556,0,1,1,7.1551,4.2743,4.48,4.48,0,0,0-2.3016,3.9588V52.82"/><path class="b" d="M101.83,57.5119a.3165.3165,0,1,1-.3164-.3166A.3165.3165,0,0,1,101.83,57.5119Z"/></svg>