<svg xmlns="http://www.w3.org/2000/svg" width="124" height="124" viewBox="0 0 124 124"><defs><style>.a{fill:none;stroke:#222;stroke-linecap:round;stroke-linejoin:round;stroke-width:2.8381px;}.b{fill:#f1494c;}</style></defs><line class="a" x1="24.8064" y1="111.9852" x2="24.8064" y2="121.0435"/><line class="a" x1="15.5229" y1="111.9852" x2="15.5229" y2="121.0435"/><path class="a" d="M25.39,95.4317a5.15,5.15,0,1,1-5.15-5.15A5.15,5.15,0,0,1,25.39,95.4317Z"/><path class="a" d="M9.53,121.0435V108.0323a3.35,3.35,0,0,1,3.35-3.35H27.5989a3.35,3.35,0,0,1,3.35,3.35v13.0112"/><line class="a" x1="106.4339" y1="111.9852" x2="106.4339" y2="121.0435"/><line class="a" x1="97.1504" y1="111.9852" x2="97.1504" y2="121.0435"/><circle class="a" cx="101.8671" cy="95.4317" r="5.1501"/><path class="a" d="M91.1579,121.0435V108.0323a3.35,3.35,0,0,1,3.35-3.35h14.7188a3.35,3.35,0,0,1,3.35,3.35v13.0112"/><line class="a" x1="52.7232" y1="85.2922" x2="52.7232" y2="121.0435"/><line class="a" x1="60.3851" y1="121.0435" x2="60.3851" y2="99.0833"/><line class="a" x1="68.0472" y1="99.0833" x2="68.0472" y2="121.0435"/><line class="a" x1="68.0472" y1="85.2922" x2="68.0472" y2="99.0833"/><path class="a" d="M66.1867,71.0125a5.8015,5.8015,0,1,1-5.8016-5.8015A5.8015,5.8015,0,0,1,66.1867,71.0125Z"/><line class="a" x1="52.7232" y1="99.0833" x2="68.0472" y2="99.0833"/><line class="a" x1="60.3851" y1="80.6533" x2="60.3851" y2="87.377"/><polyline class="a" points="60.385 80.653 67.184 80.653 75.572 72.266 75.572 63.183"/><polyline class="a" points="60.385 80.653 53.586 80.653 45.199 72.266 45.199 63.183"/><path class="a" d="M85.0217,44.205s16.8454,8.5467,16.8454,34.8093"/><polyline class="a" points="97.084 81.009 101.867 85.792 106.65 81.009"/><path class="a" d="M36.526,44.205S19.6807,52.7517,19.6807,79.0143"/><polyline class="a" points="24.463 81.009 19.681 85.792 14.898 81.009"/><circle class="a" cx="61.0533" cy="37.4623" r="20.5377"/><rect class="b" x="59.0042" y="26.4522" width="4.0983" height="22.0202"/><rect class="b" x="50.0433" y="35.4132" width="22.02" height="4.0983"/></svg>