<svg xmlns="http://www.w3.org/2000/svg" width="124" height="124" viewBox="0 0 124 124"><defs><style>.a,.b,.c{fill:none;}.a,.b,.c,.d{stroke:#222;stroke-miterlimit:10;stroke-width:2.8381px;}.a{stroke-linecap:square;}.b{stroke-linecap:round;}.d{fill:#fff;}.e{fill:#f1494c;}.f{fill:#222;}</style></defs><line class="a" x1="80.8713" y1="59.3316" x2="38.2089" y2="59.3316"/><path class="a" d="M103.6671,72.9763v44.6585a3.7986,3.7986,0,0,1-3.7935,3.7936H5.7951a3.7931,3.7931,0,0,1-3.7935-3.7936V59.3316"/><path class="b" d="M38.211,59.3319H2V46.8545H29.1618A7.0414,7.0414,0,0,1,35.89,51.8176Z"/><rect class="c" x="85.1846" y="52.2408" width="23.6445" height="16.7111"/><path class="c" d="M122,50.07a9.2,9.2,0,0,0-9.2-9.2h0a9.2,9.2,0,0,0-9.2,9.2v2.1711"/><path class="d" d="M122,52.2408V50.07"/><path class="e" d="M98.21,115.649V96.91a107.9223,107.9223,0,0,1-45.5,9.703A107.9223,107.9223,0,0,1,7.21,96.91V115.649Z"/><rect class="f" x="90.7585" y="60.715" width="5.8846" height="2.2154" transform="translate(71.1596 -48.149) rotate(45)"/><rect class="f" x="93.2256" y="59.3688" width="11.7692" height="2.2154" transform="translate(-13.7346 87.7946) rotate(-45)"/></svg>