<svg xmlns="http://www.w3.org/2000/svg" width="124" height="124" viewBox="0 0 124 124"><defs><style>.a,.c{fill:none;stroke:#222;stroke-linecap:round;stroke-width:2.8381px;}.a{stroke-linejoin:round;}.b{fill:#f1494c;}.c{stroke-miterlimit:10;}.d{fill:#222;}</style></defs><path class="a" d="M55.7123,54.7678A13.7679,13.7679,0,1,0,69.48,41,13.7681,13.7681,0,0,0,55.7123,54.7678Z"/><path class="a" d="M91.7926,68.1688a26.0479,26.0479,0,0,0-.2235-27.1664"/><path class="a" d="M47.0509,41.5625a26.0587,26.0587,0,0,0-.4535,25.61"/><path class="b" d="M62.5679,54.7678A6.9122,6.9122,0,1,0,69.48,47.8555,6.9125,6.9125,0,0,0,62.5679,54.7678Z"/><path class="a" d="M65.8444,80.6159c-7.6062-.7976-25.7728-4.9425-41.21-25.8481C44.7421,27.5377,69.48,28.7437,69.48,28.7437s24.7379-1.206,44.846,26.0241c-11.4075,15.4478-24.305,21.7439-33.33,24.3"/><path class="c" d="M24.6342,54.7678S6.2741,53.9337,3.4769,38.554"/><path class="c" d="M33.1822,45.0089s-11.1736,1.4174-15.3694-10.908"/><path class="c" d="M42.0849,37.8554s-9.3244-1.3566-11.16-9.1117"/><path class="c" d="M30.9247,62.7382S19.7513,61.321,15.5556,73.6464"/><path class="c" d="M38.3963,69.09s-9.3244,1.3569-11.16,9.1117"/><path class="c" d="M46.18,74.657a8.814,8.814,0,0,0-8.19,7.0906"/><path class="a" d="M83.1062,102.8158A13.0936,13.0936,0,1,1,96.2,115.91,13.0934,13.0934,0,0,1,83.1062,102.8158Z"/><line class="a" x1="96.1996" y1="106.159" x2="96.1996" y2="94.8698"/><path class="d" d="M97.6305,109.9678a1.4348,1.4348,0,1,0-1.4352,1.4343A1.4354,1.4354,0,0,0,97.6305,109.9678Z"/><path class="c" d="M79.4019,83.9116l-8.9169-8.66v37.5051A9.2433,9.2433,0,0,0,79.7282,122H111.28a9.2436,9.2436,0,0,0,9.2435-9.2435V93.1554a9.2436,9.2436,0,0,0-9.2435-9.2438Z"/></svg>