<svg xmlns="http://www.w3.org/2000/svg" width="124" height="124" viewBox="0 0 124 124"><defs><style>.a{fill:#454545;}.b,.c{fill:none;stroke-miterlimit:10;}.b{stroke:#222;stroke-width:2.8381px;}.c{stroke:#344154;stroke-width:2.7903px;}.d{fill:#f1494c;}</style></defs><path class="a" d="M60.8325,61.0692V44.7133l-.3761.14a14.1037,14.1037,0,0,1-4.6047.6494V42.5815c3.2014-.07,5.1024-1.3606,5.6579-3.839h2.8089V61.0692Z"/><path class="a" d="M14.98,80.3709a8.1941,8.1941,0,0,1,1.23-4.3227,12.7131,12.7131,0,0,1,1.6726-1.9733c.7285-.7258,1.6473-1.5474,2.7308-2.4425.9643-.7939,1.7931-1.5073,2.4639-2.12a13.8545,13.8545,0,0,0,1.639-1.7453,5.7887,5.7887,0,0,0,.9128-1.6531,5.6137,5.6137,0,0,0,.2748-1.7889,3.0846,3.0846,0,0,0-3.3717-3.3617,3.1991,3.1991,0,0,0-1.302.2744,3.11,3.11,0,0,0-1.0954.8247,4.5406,4.5406,0,0,0-.7689,1.3342,5.8832,5.8832,0,0,0-.3479,1.561H15.4337a9.4136,9.4136,0,0,1,.6721-2.6954,7.1649,7.1649,0,0,1,1.4952-2.2658,6.4815,6.4815,0,0,1,2.1885-1.441,7.4457,7.4457,0,0,1,2.8022-.5118,8.298,8.298,0,0,1,2.9488.4909A6.1746,6.1746,0,0,1,27.69,59.87,5.7249,5.7249,0,0,1,29.008,61.869a6.8419,6.8419,0,0,1,.456,2.5169,7.789,7.789,0,0,1-.33,2.3089,7.3864,7.3864,0,0,1-.9887,2.0119,16.617,16.617,0,0,1-1.8911,2.14c-.8506.8374-1.9038,1.7962-3.1309,2.8493q-1.1057.9613-1.9033,1.7a15.3767,15.3767,0,0,0-1.2049,1.2163l-.391.4595h9.9v3.3Z"/><path class="a" d="M102.22,80.7355a7.7673,7.7673,0,0,1-2.8421-.505A6.6159,6.6159,0,0,1,97.153,78.81a6.7462,6.7462,0,0,1-1.4923-2.21,8.417,8.417,0,0,1-.62-2.611h3.6069a5.2166,5.2166,0,0,0,.2207,1.2767,3.9162,3.9162,0,0,0,.6894,1.3153,3.37,3.37,0,0,0,1.1263.9019,3.4135,3.4135,0,0,0,1.5368.3329,3.702,3.702,0,0,0,1.5178-.3052,3.4317,3.4317,0,0,0,1.1718-.842,3.6622,3.6622,0,0,0,.74-1.2808,4.8968,4.8968,0,0,0,.2535-1.6017,3.6232,3.6232,0,0,0-1.0564-2.7944,4.3639,4.3639,0,0,0-3.0437-.9619H100.373V67.1245h1.0145c2.2735,0,3.4752-1.12,3.4752-3.2395a2.977,2.977,0,0,0-.74-2.1618,2.8153,2.8153,0,0,0-2.0954-.76c-1.7975,0-2.86,1.1286-3.1609,3.3562H95.2936a8.6861,8.6861,0,0,1,.7195-2.5482,6.7454,6.7454,0,0,1,1.4623-2.0564,5.9168,5.9168,0,0,1,2.0237-1.2477,7.1189,7.1189,0,0,1,2.4688-.4236,7.7391,7.7391,0,0,1,2.6759.4391,6.0049,6.0049,0,0,1,2.0328,1.2181,5.34,5.34,0,0,1,1.2934,1.8552,6.0914,6.0914,0,0,1,.4533,2.3743,5.4374,5.4374,0,0,1-.48,2.2317,4.8853,4.8853,0,0,1-1.4642,1.8466l-.3388.2671.3824.1993a5.1831,5.1831,0,0,1,2.1963,2.1268A6.4481,6.4481,0,0,1,109.48,73.74a7.0713,7.0713,0,0,1-.5577,2.8348,6.6859,6.6859,0,0,1-1.5341,2.21,6.98,6.98,0,0,1-2.3017,1.4374A7.925,7.925,0,0,1,102.22,80.7355Z"/><rect class="b" x="42.2499" y="73.882" width="40.0001" height="47.3887"/><rect class="c" x="82.25" y="94.2166" width="40" height="27.0541"/><rect class="b" x="82.25" y="94.2166" width="40" height="27.0541"/><rect class="b" x="2.25" y="94.2166" width="39.9999" height="27.0541"/><line class="b" x1="62.2499" y1="27.2165" x2="62.2499" y2="18.7293"/><line class="b" x1="54.5692" y1="28.8841" x2="51.1895" y2="21.1305"/><line class="b" x1="48.2166" y1="33.5984" x2="42.0415" y2="27.9193"/><line class="b" x1="76.2834" y1="33.5984" x2="82.4584" y2="27.9193"/><line class="b" x1="69.9307" y1="28.8841" x2="73.3104" y2="21.1305"/><path class="d" d="M48.1682,104.897v10.3494H76.3316V85.3647S68.6245,104.6645,48.1682,104.897Z"/></svg>