<svg xmlns="http://www.w3.org/2000/svg" width="124" height="124" viewBox="0 0 124 124"><defs><style>.a{fill:none;stroke:#222;stroke-linecap:round;stroke-linejoin:round;stroke-width:2.8381px;}</style></defs><line class="a" x1="62.0928" y1="76.0532" x2="48.678" y2="89.4676"/><polyline class="a" points="62.093 61.25 62.093 76.053 75.322 89.283"/><path class="a" d="M53.9364,26.841l-11.762,7.6946s-1.6282,17.4586-1.6282,18.5678"/><path class="a" d="M53.9364,26.841h0l.1984,8.698a8.6542,8.6542,0,0,0,3.1143,6.4544l4.7516,3.9555,4.7506-3.9566A8.6512,8.6512,0,0,0,69.866,35.539l.198-8.698h0A13.5905,13.5905,0,0,1,53.9364,26.841Z"/><path class="a" d="M83.4542,53.1034c0-1.1092-1.6272-18.5678-1.6272-18.5678L70.064,26.841"/><path class="a" d="M70.5572,12.9641c0-5.8013-3.8311-10.5046-8.5565-10.5046s-8.557,4.7033-8.557,10.5046,3.8306,10.5046,8.557,10.5046S70.5572,18.7655,70.5572,12.9641Z"/><line class="a" x1="62.0007" y1="45.9489" x2="62.0007" y2="53.1034"/><path class="a" d="M15.39,95.278l-11.762,7.6946S2,120.4312,2,121.5405"/><path class="a" d="M15.39,95.278h0l.1985,8.6981a8.6541,8.6541,0,0,0,3.1142,6.4543l4.7516,3.9557,4.7506-3.9567a8.6509,8.6509,0,0,0,3.1147-6.4533l.198-8.6981h0A13.5905,13.5905,0,0,1,15.39,95.278Z"/><path class="a" d="M44.908,121.5405c0-1.1093-1.6271-18.5679-1.6271-18.5679L31.5178,95.278"/><path class="a" d="M32.011,81.4013c0-5.8015-3.8311-10.5047-8.5565-10.5047S14.8974,75.6,14.8974,81.4013s3.8307,10.5045,8.5571,10.5045S32.011,87.2026,32.011,81.4013Z"/><line class="a" x1="23.4545" y1="114.3861" x2="23.4545" y2="121.5405"/><path class="a" d="M92.4822,95.278,80.72,102.9726s-1.6283,17.4586-1.6283,18.5679"/><path class="a" d="M92.4822,95.278h0l.1985,8.6981A8.6539,8.6539,0,0,0,95.795,110.43l4.7515,3.9557,4.7507-3.9567a8.6516,8.6516,0,0,0,3.1147-6.4533l.198-8.6981h0A13.5907,13.5907,0,0,1,92.4822,95.278Z"/><path class="a" d="M122,121.5405c0-1.1093-1.6271-18.5679-1.6271-18.5679L108.61,95.278"/><path class="a" d="M109.1031,81.4013c0-5.8015-3.8312-10.5047-8.5566-10.5047S91.99,75.6,91.99,81.4013s3.8306,10.5045,8.557,10.5045S109.1031,87.2026,109.1031,81.4013Z"/><line class="a" x1="100.5465" y1="114.3861" x2="100.5465" y2="121.5405"/></svg>