<svg xmlns="http://www.w3.org/2000/svg" width="124" height="124" viewBox="0 0 124 124"><defs><style>.a{fill:#f1494c;}.b{fill:#454545;}.c,.d{fill:none;stroke:#222;}.c{stroke-miterlimit:10;stroke-width:1.3387px;}.d{stroke-linecap:round;stroke-linejoin:round;stroke-width:2.4476px;}</style></defs><path class="a" d="M55.0457,49.6773a1.8485,1.8485,0,1,0-1.8485,1.8485A1.8485,1.8485,0,0,0,55.0457,49.6773Z"/><rect class="b" x="33.8266" y="69.8381" width="6.0533" height="19.3322"/><rect class="a" x="82.8584" y="59.8037" width="6.0533" height="29.3666"/><rect class="a" x="50.1706" y="59.4355" width="6.0533" height="29.7349"/><circle class="c" cx="53.1972" cy="49.6773" r="4.2884" transform="translate(-12.9834 79.9744) rotate(-67.6384)"/><path class="a" d="M87.7336,50.0455A1.8485,1.8485,0,1,0,85.885,51.894,1.8486,1.8486,0,0,0,87.7336,50.0455Z"/><circle class="c" cx="85.885" cy="50.0455" r="4.2884" transform="translate(-4.3261 8.2993) rotate(-5.3967)"/><rect class="b" x="66.5145" y="68.7334" width="6.0533" height="20.437"/><circle class="c" cx="69.5412" cy="58.9752" r="2.5777"/><path class="c" d="M39.4309,60.08a2.5776,2.5776,0,1,0-2.5776,2.5776A2.5777,2.5777,0,0,0,39.4309,60.08Z"/><line class="c" x1="38.7843" y1="58.3765" x2="49.5116" y2="51.8623"/><line class="c" x1="57.1497" y1="51.3437" x2="66.9635" y2="57.5022"/><line class="c" x1="71.8098" y1="57.751" x2="82.0201" y2="51.894"/><path class="d" d="M62.323,99.34A.323.323,0,1,1,62,99.0169.3228.3228,0,0,1,62.323,99.34Z"/><path class="d" d="M62,104.4643H78.2776a32.493,32.493,0,0,0,.4353,8.2412,11.4291,11.4291,0,0,0,6.3365,7.6545h0c.9528.4881.5076,1.64-.6335,1.64H39.5846c-1.1416,0-1.5868-1.1519-.634-1.64h0a11.4281,11.4281,0,0,0,6.336-7.6545,32.48,32.48,0,0,0,.4358-8.2412Z"/><line class="d" x1="21.6493" y1="92.7202" x2="102.3507" y2="92.7202"/><path class="d" d="M15.2809,38.9855H108.719a4.7989,4.7989,0,0,1,4.7989,4.7989V99.665a4.7993,4.7993,0,0,1-4.7993,4.7993H15.2809a4.7988,4.7988,0,0,1-4.7988-4.7988V43.7843a4.7988,4.7988,0,0,1,4.7988-4.7988Z"/></svg>