<svg xmlns="http://www.w3.org/2000/svg" width="124" height="124" viewBox="0 0 124 124"><defs><style>.a{fill:none;stroke:#222;stroke-linecap:round;stroke-linejoin:round;stroke-width:2.8642px;}.b{fill:#f1494c;}</style></defs><polyline class="a" points="71.168 51.705 41.574 66.855 11.98 51.705"/><path class="a" d="M50.515,91.76H7.6635a4.3012,4.3012,0,0,1-4.3014-4.3013V43.54L41.574,16.9862,79.7856,43.54V79.948"/><path class="a" d="M22.73,56.1759V50.0743a4.3012,4.3012,0,0,1,4.3014-4.3013H55.5208a4.3014,4.3014,0,0,1,4.3014,4.3013v6.3892"/><path class="a" d="M112.2,98.1464a12.628,12.628,0,0,0,0-12.0094"/><path class="a" d="M117.7368,103.61a24.1181,24.1181,0,0,0,0-22.9366"/><path class="a" d="M60.6208,87.7361H59.5739a4.4054,4.4054,0,0,0-4.4054,4.4054h0a4.4055,4.4055,0,0,0,4.4054,4.4055h1.0469"/><line class="a" x1="70.2384" y1="100.2039" x2="74.2079" y2="100.2037"/><path class="a" d="M98.7034,99.3653V82.68a3.2048,3.2048,0,0,1,1.9695-2.9567c.4913-.2055.9734-.4271,1.5444-.7009a2.5008,2.5008,0,0,1,3.58,2.2558V103.246A2.4956,2.4956,0,0,1,102.25,105.52c-6.1518-2.9449-15.1685-4.3487-20.2475-4.9417A3.4453,3.4453,0,0,0,78.1551,104v16.0442a1.2867,1.2867,0,0,1-1.2866,1.2868H71.5253a1.2869,1.2869,0,0,1-1.2869-1.2868v-19.84H62.39a1.7691,1.7691,0,0,1-1.769-1.769V86.0858a1.7691,1.7691,0,0,1,1.769-1.7691H78.4169a99.3711,99.3711,0,0,0,16.7975-2.79"/><polygon class="b" points="28.32 87.407 7.715 66.801 7.715 87.407 28.32 87.407"/></svg>