<svg xmlns="http://www.w3.org/2000/svg" width="124" height="124" viewBox="0 0 124 124"><defs><style>.a{fill:none;stroke:#222;stroke-linecap:round;stroke-linejoin:round;stroke-width:2.8381px;}.b{fill:#f1494c;}</style></defs><polyline class="a" points="63.406 88.217 4.838 88.217 4.838 27.306 85.963 27.306 85.963 56.984"/><polyline class="a" points="4.838 68.98 25.367 48.452 50.248 73.334"/><polyline class="a" points="40.85 63.935 67.265 37.52 81.301 51.556"/><line class="a" x1="46.0436" y1="58.741" x2="61.6419" y2="74.3393"/><path class="a" d="M90.412,78.98c7.5421,7.5421,15.3385,11.9738,17.4139,9.8984s-2.3565-9.8718-9.8984-17.414S82.5887,59.4905,80.5136,61.5659,82.87,71.4377,90.412,78.98Z"/><path class="a" d="M102.6664,88.3183c-7.022.79-16.797,7.8676-21.6364,11.6952a3.4126,3.4126,0,0,0-.2985,5.0914l11.2379,11.2377a1.2748,1.2748,0,0,1,0,1.8025l-3.7425,3.7426a1.2751,1.2751,0,0,1-1.8026,0L72.5279,107.9913l-5.4974,5.4973a1.7523,1.7523,0,0,1-2.4781,0l-8.6492-8.6494a1.7523,1.7523,0,0,1,0-2.4781L67.1288,91.1355s12.8549-14.7293,13.9447-24.41"/><path class="a" d="M57.059,105.9952l-.7331.7331a4.3638,4.3638,0,0,0,0,6.1715h0a4.3639,4.3639,0,0,0,6.1712,0l.7331-.7334"/><line class="a" x1="72.5279" y1="107.9913" x2="75.308" y2="105.2111"/><path class="a" d="M106.5911,74.332a16.6977,16.6977,0,0,0-11.23-11.23"/><path class="a" d="M116.878,74.2631A31.8945,31.8945,0,0,0,95.4294,52.8146"/><path class="b" d="M15.6108,64.4294a17.4782,17.4782,0,0,0,19.512,0l-9.7561-9.7559Z"/><polyline class="a" points="4.838 27.306 4.838 3.874 85.963 3.874 85.963 27.306"/><polyline class="a" points="50.776 112.978 4.838 112.978 4.838 88.217"/><line class="a" x1="14.0648" y1="13.7593" x2="76.2908" y2="13.7593"/><line class="a" x1="14.0648" y1="21.1088" x2="60.6118" y2="21.1088"/><line class="a" x1="14.0648" y1="96.319" x2="55.9571" y2="96.319"/><line class="a" x1="14.0648" y1="104.8935" x2="49.5875" y2="104.8935"/></svg>