<svg xmlns="http://www.w3.org/2000/svg" width="124" height="124" viewBox="0 0 124 124"><defs><style>.a{fill:#f1494c;}.b,.c{fill:none;stroke:#222;stroke-linejoin:round;stroke-width:2.8381px;}.b{stroke-linecap:round;}</style></defs><rect class="a" x="13.9343" y="47.8227" width="7.3311" height="7.3311" rx="1.237"/><rect class="a" x="25.0969" y="47.8227" width="7.3311" height="7.3311" rx="1.237"/><rect class="a" x="36.2594" y="47.8227" width="7.3311" height="7.3311" rx="1.237"/><rect class="a" x="47.4219" y="47.8227" width="7.3311" height="7.3311" rx="1.237"/><rect class="a" x="58.5845" y="47.8227" width="7.3311" height="7.3311" rx="1.237"/><rect class="a" x="69.747" y="47.8227" width="7.3311" height="7.3311" rx="1.237"/><rect class="a" x="80.9095" y="47.8227" width="7.3311" height="7.3311" rx="1.237"/><rect class="a" x="92.0721" y="47.8227" width="7.3311" height="7.3311" rx="1.237"/><rect class="a" x="103.2346" y="47.8227" width="7.3311" height="7.3311" rx="1.237"/><rect class="a" x="36.2594" y="59.1488" width="7.3311" height="7.3311" rx="1.237"/><rect class="a" x="47.4219" y="59.1488" width="7.3311" height="7.3311" rx="1.237"/><rect class="a" x="58.5845" y="59.1488" width="7.3311" height="7.3311" rx="1.237"/><rect class="a" x="69.747" y="59.1488" width="7.3311" height="7.3311" rx="1.237"/><rect class="a" x="80.9095" y="59.1488" width="7.3311" height="7.3311" rx="1.237"/><rect class="a" x="47.4219" y="70.475" width="7.3311" height="7.3311" rx="1.237"/><rect class="a" x="58.5845" y="70.475" width="7.3311" height="7.3311" rx="1.237"/><rect class="a" x="69.747" y="70.475" width="7.3311" height="7.3311" rx="1.237"/><path class="b" d="M103.0719,80.0478V71.8461h3.211a3.211,3.211,0,0,1,3.211,3.2111"/><path class="b" d="M122.316,86.5465a63.87,63.87,0,0,1-3.0324,17.9121,32.57,32.57,0,0,0-.8916,3.3472H104.5983"/><path class="b" d="M103.0719,71.8461V63.3155a3.2111,3.2111,0,0,0-3.211-3.211h0a3.2111,3.2111,0,0,0-3.2111,3.211V87.0888l-2.2146-5.7607a3.8071,3.8071,0,0,0-3.5535-2.4409h0a3.807,3.807,0,0,0-3.807,3.807h0a21.33,21.33,0,0,0,2.99,10.9591,24.6054,24.6054,0,0,0,2.7355,3.765,23.607,23.607,0,0,1,4.9906,10.3875"/><path class="b" d="M109.4939,82.4464V74.2447h3.2111a3.211,3.211,0,0,1,3.211,3.211v7.7762"/><path class="b" d="M115.916,78.3456h3.211a3.2109,3.2109,0,0,1,3.211,3.211v4.9906"/><rect class="b" x="95.2685" y="112.1217" width="24.8995" height="9.8827"/><path class="b" d="M115.1365,117.0631a.5034.5034,0,1,0-.5034.5035A.5034.5034,0,0,0,115.1365,117.0631Z"/><polyline class="c" points="115.916 69.128 115.916 42.837 8.584 42.837 8.584 69.128"/><line class="b" x1="35.9122" y1="103.0395" x2="88.392" y2="103.0395"/><path class="b" d="M21.4281,80.0478V71.8461h-3.211a3.2109,3.2109,0,0,0-3.211,3.2111"/><path class="b" d="M2.184,86.5465a63.8735,63.8735,0,0,0,3.0324,17.9121,32.57,32.57,0,0,1,.8916,3.3472H19.9017"/><path class="b" d="M21.4281,71.8461V63.3155a3.211,3.211,0,0,1,3.211-3.211h0a3.2111,3.2111,0,0,1,3.2111,3.211V87.0888l2.2146-5.7607a3.8071,3.8071,0,0,1,3.5534-2.4409h0a3.8069,3.8069,0,0,1,3.807,3.807h0a21.3294,21.3294,0,0,1-2.99,10.9591A24.6121,24.6121,0,0,1,31.7,97.4183a23.6057,23.6057,0,0,0-4.9906,10.3875"/><path class="b" d="M15.0061,82.4464V74.2447H11.795a3.211,3.211,0,0,0-3.211,3.211v7.7762"/><path class="b" d="M8.584,78.3456H5.373a3.2109,3.2109,0,0,0-3.211,3.211v4.9906"/><rect class="b" x="4.3319" y="112.1217" width="24.8995" height="9.8827" transform="translate(33.5634 234.1262) rotate(180)"/><path class="b" d="M9.3634,117.0631a.5034.5034,0,1,1,.5034.5035A.5034.5034,0,0,1,9.3634,117.0631Z"/><path class="b" d="M62.2324,23.9955H82.5367a3.14,3.14,0,0,1,3.14,3.14h0a3.14,3.14,0,0,1-3.14,3.14H41.928a3.14,3.14,0,0,0-3.14,3.14v0a3.14,3.14,0,0,0,3.14,3.14H59.11a3.14,3.14,0,0,1,3.14,3.14v3.14"/></svg>