<svg xmlns="http://www.w3.org/2000/svg" width="124" height="124" viewBox="0 0 124 124"><defs><style>.a{fill:#f1494c;}.b,.c{fill:none;stroke:#222;stroke-width:2.8381px;}.b{stroke-miterlimit:10;}.c{stroke-linecap:round;stroke-linejoin:round;}</style></defs><polygon class="a" points="33.525 77.204 33.525 72.653 107.507 53.751 107.507 77.204 33.525 77.204"/><polyline class="b" points="113.2 46.42 27.832 68.231 27.832 81.001 27.832 93.77 113.2 115.58"/><path class="c" d="M113.2,81.001V44.5674a4.4,4.4,0,0,1,4.4-4.3994h0a4.4,4.4,0,0,1,4.4,4.3994v72.8651a4.4,4.4,0,0,1-4.4,4.3995h0a4.4,4.4,0,0,1-4.4-4.3995V103.0242"/><polyline class="c" points="12.189 96.026 27.832 93.555 27.832 68.231 12.189 65.761"/><path class="c" d="M12.1888,94.8424a5.0939,5.0939,0,0,1-5.0944,5.094h0A5.0939,5.0939,0,0,1,2,94.8424V66.9443A5.0938,5.0938,0,0,1,7.0944,61.85h0a5.0938,5.0938,0,0,1,5.0944,5.094V73.616"/><path class="c" d="M46.048,98.65v16.0717a5.1717,5.1717,0,0,0,5.1715,5.1714h19.76a5.1718,5.1718,0,0,0,5.1715-5.1714v-7.9529"/></svg>