<svg xmlns="http://www.w3.org/2000/svg" width="200" height="200" viewBox="0 0 200 200"><defs><style>.a{fill:#161843;}.b{fill:#fff;}</style></defs><path class="a" d="M199.4891,136.9768a3.92,3.92,0,0,1-3.9132,3.9132H4.4241a3.92,3.92,0,0,1-3.9132-3.9132V63.0232A3.92,3.92,0,0,1,4.4241,59.11H195.5759a3.92,3.92,0,0,1,3.9132,3.9132Z"/><polygon class="b" points="90.117 78.477 92.373 78.477 92.373 96.12 90.283 96.12 90.283 82.589 86.403 91.477 84.314 91.477 80.434 82.589 80.434 96.12 78.345 96.12 78.345 78.477 80.566 78.477 85.342 89.322 90.117 78.477"/><path class="b" d="M105.7372,96.12h-1.89l-.1326-1.0943a7.6839,7.6839,0,0,1-4.1786,1.36c-2.8188,0-3.9132-1.6581-3.9132-4.1122,0-2.5867,1.2933-3.9464,4.079-3.9464a10.3869,10.3869,0,0,1,3.8138.73V87.0333c0-1.6913-.5306-2.4209-2.4873-2.4209a13.0365,13.0365,0,0,0-3.5152.4974l-.3317-1.8239a14.4172,14.4172,0,0,1,4.0791-.597c3.051,0,4.477,1.3265,4.477,4.2117V96.12Zm-2.2219-5.5382A12.938,12.938,0,0,0,100,90.0179c-1.7908,0-2.2219.8623-2.2219,2.3214,0,1.625.5306,2.3878,2.0561,2.3878A6.4184,6.4184,0,0,0,103.4821,93.6V90.5817Z"/><path class="b" d="M115.7856,84.8445a15.7679,15.7679,0,0,0-4.1122,1.3928v9.9158h-2.2219V82.9874h1.8239l.2322,1.5255a6.7285,6.7285,0,0,1,3.98-1.7245Z"/><polygon class="b" points="118.107 96.12 118.107 77.416 120.329 77.416 120.329 89.056 124.905 82.987 127.525 82.987 122.485 89.487 127.724 96.12 125.104 96.12 120.329 89.885 120.329 96.12 118.107 96.12"/><path class="b" d="M131.2727,90.5485c.1327,2.7857.8291,4.1123,3.5153,4.1123a11.386,11.386,0,0,0,3.88-.73L139,95.6225a12.091,12.091,0,0,1-4.2448.7959c-4.7423,0-5.7041-3.25-5.7041-6.9311,0-3.7806,1.26-6.7652,5.273-6.7652,3.5816,0,5.0739,2.52,5.0739,5.6708v2.1556Zm0-1.7576h5.9694v-.4643c0-2.454-.7628-3.9132-2.9515-3.9132-2.4541-.0332-2.9847,1.7576-3.0179,4.3775"/><path class="b" d="M149.3134,95.9873a10.4749,10.4749,0,0,1-2.7193.3979c-2.2551,0-3.2169-1.26-3.2169-3.2831V84.7782H141.089V82.9874h2.2882V79.7705l2.222-.3316v3.5153h3.7474l-.199,1.7908h-3.5484v8.2244c0,1.2271.2984,1.5919,1.5255,1.5919a9.4127,9.4127,0,0,0,1.99-.2653Z"/><path class="b" d="M153.1272,77.6481a1.4462,1.4462,0,0,1,1.4923,1.4924,1.4276,1.4276,0,0,1-1.4923,1.4923,1.4461,1.4461,0,0,1-1.4923-1.4923,1.4656,1.4656,0,0,1,1.4923-1.4924m-1.0944,5.3393h2.2219V96.1531h-2.2219Z"/><path class="b" d="M165.9945,96.12V86.5358c0-1.1939-.4975-1.7908-1.7909-1.7908a10.0383,10.0383,0,0,0-3.7142.8623V96.12h-2.2219V82.9542h1.7908l.1989,1.1607a8.2735,8.2735,0,0,1,4.51-1.426c2.2551,0,3.4821,1.26,3.4821,3.6148V96.12Z"/><path class="b" d="M178.1321,82.9874h4.1786v1.5255l-1.7577.3316a4.6741,4.6741,0,0,1,.4975,2.2219c0,2.7194-1.89,4.3444-4.9082,4.3444a6.021,6.021,0,0,1-1.3928-.1327,1.567,1.567,0,0,0-.5969,1.2271c0,.63.3316.9285,1.1938.9285h2.9847a3.4256,3.4256,0,0,1,3.7474,3.5153c0,2.8189-2.4872,4.2117-6.0357,4.2117-3.4489,0-5.3061-1.0612-5.3061-3.5484a3.0472,3.0472,0,0,1,2.0893-2.8189,2.0393,2.0393,0,0,1-.8622-1.7576,2.494,2.494,0,0,1,1.5255-2.1888,3.9815,3.9815,0,0,1-2.2551-3.7806c0-2.8188,1.625-4.3443,4.875-4.3443a7.4761,7.4761,0,0,1,2.0229.2653m-4.1785,12.27a2.6985,2.6985,0,0,0-1.1276,2.1888c0,1.5255,1.2934,2.0892,3.2832,2.0892,2.3214,0,3.7474-.5969,3.7474-2.3546a1.7393,1.7393,0,0,0-1.99-1.8239h-2.852a4.2276,4.2276,0,0,1-1.0612-.1m2.1887-10.9438c-1.89,0-2.7857.7627-2.7857,2.7525s1.0281,2.7525,2.7857,2.7525a2.4888,2.4888,0,0,0,2.8189-2.7525c0-1.9234-.9949-2.7525-2.8189-2.7525"/><path class="b" d="M80.6328,116.0841V122.65H78.3445V104.9745h5.273c4.079,0,5.5713,2.3214,5.5713,5.5382s-1.4923,5.5382-5.5713,5.5382H80.6328Zm0-1.8572h2.9183c2.6531,0,3.3827-1.5255,3.3827-3.6811,0-2.1887-.73-3.6811-3.3827-3.6811H80.6328Z"/><path class="b" d="M100.4311,122.65h-1.89l-.1326-1.0944a7.6839,7.6839,0,0,1-4.1786,1.36c-2.8188,0-3.9132-1.6582-3.9132-4.1122,0-2.5868,1.2933-3.9464,4.079-3.9464a10.5454,10.5454,0,0,1,3.8138.73v-2.023c0-1.6913-.5306-2.4209-2.4872-2.4209a13.0335,13.0335,0,0,0-3.5153.4975l-.3317-1.824a14.4173,14.4173,0,0,1,4.0791-.5969c3.051,0,4.477,1.3265,4.477,4.2117V122.65Zm-2.2219-5.5383a12.9385,12.9385,0,0,0-3.5153-.5637c-1.7908,0-2.2219.8622-2.2219,2.3214,0,1.625.5306,2.3877,2.0561,2.3877A6.4192,6.4192,0,0,0,98.176,120.13v-3.0179Z"/><path class="b" d="M110.48,111.3749a15.7642,15.7642,0,0,0-4.1122,1.3929v9.9157h-2.2219V109.5178h1.8239l.2322,1.5255a6.7285,6.7285,0,0,1,3.98-1.7245Z"/><path class="b" d="M119.5662,122.5177a10.4754,10.4754,0,0,1-2.7194.398c-2.2551,0-3.2168-1.26-3.2168-3.2832v-8.3239h-2.2551v-1.7908h2.2883V106.301l2.2219-.3316v3.5152h3.7474l-.199,1.7908h-3.5484V119.5c0,1.227.2985,1.5918,1.5255,1.5918a9.4127,9.4127,0,0,0,1.99-.2653Z"/><path class="b" d="M130.0457,122.65v-9.5842c0-1.1938-.4974-1.7908-1.7908-1.7908a10.0393,10.0393,0,0,0-3.7143.8623V122.65h-2.2219V109.4846H124.11l.199,1.1608a8.2732,8.2732,0,0,1,4.51-1.4261c2.2551,0,3.4821,1.26,3.4821,3.6148V122.65Z"/><path class="b" d="M137.4742,117.079c.1327,2.7857.8291,4.1122,3.5153,4.1122a11.384,11.384,0,0,0,3.88-.73l.3316,1.6913a12.091,12.091,0,0,1-4.2448.7959c-4.7423,0-5.7041-3.25-5.7041-6.9311,0-3.7805,1.26-6.7652,5.2729-6.7652,3.5816,0,5.074,2.52,5.074,5.6709v2.1556Zm0-1.7577h5.9694v-.4642c0-2.4541-.7628-3.9133-2.9515-3.9133-2.4873-.0332-3.0179,1.7577-3.0179,4.3775"/><path class="b" d="M155.0507,111.3749a15.7649,15.7649,0,0,0-4.1123,1.3929v9.9157h-2.2219V109.5178h1.824l.2321,1.5255a6.7285,6.7285,0,0,1,3.98-1.7245Z"/><path class="b" d="M63.0564,75.6915H19.7786a2.6751,2.6751,0,0,0-2.6862,2.6862v43.2778a2.6751,2.6751,0,0,0,2.6862,2.6862H43.0591V105.5051H36.7249V98.176h6.3342V92.7705c0-6.2678,3.8469-9.7168,9.4514-9.7168a48.6028,48.6028,0,0,1,5.6709.2985v6.5662h-3.88c-3.051,0-3.6479,1.4592-3.6479,3.5817V98.176h7.2627l-.9617,7.3291H50.62v18.8366h12.403a2.6751,2.6751,0,0,0,2.6862-2.6862V78.3777a2.6681,2.6681,0,0,0-2.653-2.6862"/></svg>