<svg xmlns="http://www.w3.org/2000/svg" width="200" height="200" viewBox="0 0 200 200"><defs><style>.a{fill:#171742;}.b{fill:none;}</style></defs><path class="a" d="M47.3046,118.1887v14.3948H42.738v-35.54H54.8494a10.945,10.945,0,0,1,7.8423,3.0773,10.2689,10.2689,0,0,1,0,15.04,10.93,10.93,0,0,1-7.8423,3.0277Zm0-16.7772v12.4093h7.644a6.0356,6.0356,0,0,0,4.517-1.8367,6.23,6.23,0,0,0-4.517-10.5726Z"/><path class="a" d="M78.1787,107.4674a11.3238,11.3238,0,0,1,7.9918,2.7049,9.6067,9.6067,0,0,1,2.9286,7.4207v14.99H84.7308v-3.3752h-.1983a8.7125,8.7125,0,0,1-7.5448,4.1692,9.8072,9.8072,0,0,1-6.7258-2.3825,7.6073,7.6073,0,0,1-2.7053-5.9563,7.23,7.23,0,0,1,2.854-6.006A12.0274,12.0274,0,0,1,78.03,116.799a13.4828,13.4828,0,0,1,6.7008,1.4893v-1.0427a5.1982,5.1982,0,0,0-1.8859-4.0451,6.4714,6.4714,0,0,0-4.4179-1.663,6.9975,6.9975,0,0,0-6.0555,3.2265l-4.02-2.5316Q71.6756,107.4677,78.1787,107.4674Zm-5.9064,17.67a3.6444,3.6444,0,0,0,1.5139,2.9782,5.5674,5.5674,0,0,0,3.5489,1.1914,7.2788,7.2788,0,0,0,5.1374-2.1341,6.6847,6.6847,0,0,0,2.2583-5.0137,9.3848,9.3848,0,0,0-5.9564-1.6876,7.7372,7.7372,0,0,0-4.6408,1.34A3.9811,3.9811,0,0,0,72.2723,125.1378Z"/><path class="a" d="M94.2607,108.2615H98.629v3.9709h.1983q2.035-4.665,8.3888-4.6658l.9432.0991v4.7654l-2.0354-.1987a7.2882,7.2882,0,0,0-5.2366,1.9608,6.5879,6.5879,0,0,0-2.06,4.9883v13.402H94.2607Zm28.4917,24.719a6.94,6.94,0,0,1-4.9387-1.8363,6.8088,6.8088,0,0,1-2.01-5.1128v-13.6h-4.2688v-4.17h4.2688v-7.4457H120.37v7.4457h5.9563v4.17H120.37v12.1114q0,2.4322.9431,3.3006a3.0636,3.0636,0,0,0,2.1342.8686,4.5775,4.5775,0,0,0,1.0673-.1241,5.483,5.483,0,0,0,.9678-.3225l1.44,4.07A12.2767,12.2767,0,0,1,122.7524,132.9805Z"/><path class="a" d="M130.9413,108.2615H135.31v3.3751h.1983a8.123,8.123,0,0,1,3.2019-2.9781,9.1756,9.1756,0,0,1,4.4921-1.1911,8.9882,8.9882,0,0,1,6.8745,2.5562q2.4069,2.5567,2.4075,7.2719v15.288h-4.5667v-14.99q-.1487-5.9564-6.0059-5.9564a5.7077,5.7077,0,0,0-4.5667,2.2092,8.0026,8.0026,0,0,0-1.8367,5.2861v13.4516h-4.5666Z"/><path class="a" d="M168.7645,133.3775a11.6307,11.6307,0,0,1-8.8354-3.673,12.9673,12.9673,0,0,1-3.4747-9.282,13.2107,13.2107,0,0,1,3.3752-9.2574,12.136,12.136,0,0,1,17.2488-.1983q3.2019,3.4993,3.2018,9.8031l-.05.4966H161.12a7.922,7.922,0,0,0,2.3828,5.7576,7.6187,7.6187,0,0,0,5.46,2.1842q4.3676,0,6.85-4.3683l4.07,1.9858a12.1253,12.1253,0,0,1-4.5416,4.8145A12.5633,12.5633,0,0,1,168.7645,133.3775Zm-7.2969-15.8836h13.9482a6.0574,6.0574,0,0,0-2.06-4.1942,7.211,7.211,0,0,0-4.9886-1.6631,6.6222,6.6222,0,0,0-4.4425,1.5885A7.5926,7.5926,0,0,0,161.4676,117.4939Z"/><path class="a" d="M189.0157,132.5835h-4.5666v-24.322h4.3683v3.9709h.1983a6.5927,6.5927,0,0,1,2.8541-3.3007,7.9251,7.9251,0,0,1,4.2441-1.3651,8.5588,8.5588,0,0,1,3.3752.5957l-1.39,4.4175a7.5835,7.5835,0,0,0-2.68-.3474,5.909,5.909,0,0,0-4.4921,2.0846,6.972,6.972,0,0,0-1.9113,4.8645Z"/><path class="b" d="M72.13,76.912a3.86,3.86,0,0,0-2.9346,1.2732,4.3253,4.3253,0,0,0-1.19,3.1558,4.4438,4.4438,0,0,0,1.19,3.1558,3.9855,3.9855,0,0,0,5.8412,0,4.45,4.45,0,0,0,1.2179-3.1558,4.3265,4.3265,0,0,0-1.19-3.1558A3.86,3.86,0,0,0,72.13,76.912Z"/><path class="b" d="M104.0757,76.912a3.818,3.818,0,0,0-2.879,1.3009,4.7829,4.7829,0,0,0-.0276,6.2839,3.8252,3.8252,0,0,0,2.9066,1.2736,3.6047,3.6047,0,0,0,2.7679-1.246,4.9931,4.9931,0,0,0,0-6.3392A3.5189,3.5189,0,0,0,104.0757,76.912Z"/><path class="b" d="M88.1305,76.912a3.8587,3.8587,0,0,0-2.9342,1.2732,4.3249,4.3249,0,0,0-1.19,3.1558,4.4434,4.4434,0,0,0,1.19,3.1558,3.985,3.985,0,0,0,5.8408,0,4.45,4.45,0,0,0,1.2183-3.1558,4.3251,4.3251,0,0,0-1.1907-3.1558A3.8593,3.8593,0,0,0,88.1305,76.912Z"/><path class="b" d="M126.4706,77.2858a3.33,3.33,0,0,0-1.6886-.4291,3.7584,3.7584,0,0,0-2.7131,1.218,3.995,3.995,0,0,0-1.1073,3.0448l6.5331-2.7127A2.2618,2.2618,0,0,0,126.4706,77.2858Z"/><path class="a" d="M53.0847,76.2754v3.1h7.419a6.56,6.56,0,0,1-2.4359,4.5676A8.32,8.32,0,0,1,47.2992,83.14a8.4261,8.4261,0,0,1,0-11.6817A7.7717,7.7717,0,0,1,53.0847,69.05a7.9464,7.9464,0,0,1,5.5921,2.2147l2.1866-2.1871A10.9224,10.9224,0,0,0,53.0847,65.95a11.4277,11.4277,0,0,0-5.7579,1.55,11.2264,11.2264,0,0,0-4.2351,4.18,11.1964,11.1964,0,0,0,4.2351,15.4188,11.423,11.423,0,0,0,5.7579,1.55A10.5866,10.5866,0,0,0,60.6976,85.77a11.11,11.11,0,0,0,2.8236-9.495Z"/><path class="a" d="M72.13,74.0331a7.1039,7.1039,0,0,0-5.2322,2.1037A7.5237,7.5237,0,1,0,72.13,74.0331ZM75.037,84.4968a3.9855,3.9855,0,0,1-5.8412,0,4.4438,4.4438,0,0,1-1.19-3.1558,4.3253,4.3253,0,0,1,1.19-3.1558,4.0181,4.0181,0,0,1,5.8688,0,4.3265,4.3265,0,0,1,1.19,3.1558A4.45,4.45,0,0,1,75.037,84.4968Z"/><rect class="a" x="113.017" y="66.7247" width="3.2111" height="21.4815"/><path class="a" d="M88.1305,74.0331a7.1032,7.1032,0,0,0-5.2319,2.1037,7.5233,7.5233,0,1,0,5.2319-2.1037Zm2.9066,10.4637a3.985,3.985,0,0,1-5.8408,0,4.4434,4.4434,0,0,1-1.19-3.1558,4.3249,4.3249,0,0,1,1.19-3.1558,4.0177,4.0177,0,0,1,5.8684,0,4.3251,4.3251,0,0,1,1.1907,3.1558A4.45,4.45,0,0,1,91.0371,84.4968Z"/><path class="a" d="M125.0312,85.77a3.7384,3.7384,0,0,1-3.5436-2.2147l9.7718-4.0416-.3321-.8305a8.042,8.042,0,0,0-1.01-1.8826,7.2627,7.2627,0,0,0-1.4255-1.4807,6.0968,6.0968,0,0,0-1.7719-.9551,6.2682,6.2682,0,0,0-2.0485-.3321,6.5581,6.5581,0,0,0-4.9274,2.076,7.37,7.37,0,0,0-1.9655,5.2319,7.118,7.118,0,0,0,2.0761,5.2042,7.3777,7.3777,0,0,0,11.267-1.135L128.63,83.75A4.1512,4.1512,0,0,1,125.0312,85.77Zm-2.9623-7.6957a3.7584,3.7584,0,0,1,2.7131-1.218,3.33,3.33,0,0,1,1.6886.4291,2.2618,2.2618,0,0,1,1.0241,1.121L120.9616,81.12A3.995,3.995,0,0,1,122.0689,78.0747Z"/><path class="a" d="M107.7571,75.666h-.1106a4.7721,4.7721,0,0,0-3.8477-1.6329,6.664,6.664,0,0,0-4.9273,2.159,7.4562,7.4562,0,0,0,0,10.3255,6.7642,6.7642,0,0,0,4.9273,2.1317,4.7352,4.7352,0,0,0,3.8477-1.661h.1106v.7472q0,4.5953-3.903,4.5953a3.6179,3.6179,0,0,1-2.2147-.72,4.5066,4.5066,0,0,1-1.4671-1.8825l-2.796,1.1626a7.4546,7.4546,0,0,0,1.0521,1.758A6.67,6.67,0,0,0,99.91,94.0058a7.2307,7.2307,0,0,0,1.8409.8858,6.884,6.884,0,0,0,2.1037.3181,6.6336,6.6336,0,0,0,5.1073-1.9791,7.967,7.967,0,0,0,1.8409-5.6333V74.4758h-3.0452Zm-.9135,8.8584a3.6047,3.6047,0,0,1-2.7679,1.246,3.8252,3.8252,0,0,1-2.9066-1.2736,4.7829,4.7829,0,0,1,.0276-6.2839,3.818,3.818,0,0,1,2.879-1.3009,3.5189,3.5189,0,0,1,2.7679,1.2732,4.9931,4.9931,0,0,1,0,6.3392Z"/><rect class="a" x="0.5109" y="55.7409" width="23.2943" height="88.5183"/></svg>