<svg xmlns="http://www.w3.org/2000/svg" width="200" height="200" viewBox="0 0 200 200"><defs><style>.a{fill:#171742;}</style></defs><path class="a" d="M51.51,115.2669V84.736h8.6868a9.495,9.495,0,0,1,6.2814,1.9372A6.2634,6.2634,0,0,1,68.7989,91.72a7.4268,7.4268,0,0,1-1.4055,4.513,7.5705,7.5705,0,0,1-3.8744,2.7253v.0846a7.7754,7.7754,0,0,1,4.9394,2.3315,7.1727,7.1727,0,0,1,1.8519,5.1209,7.9821,7.9821,0,0,1-2.81,6.3444,10.4584,10.4584,0,0,1-7.0907,2.4276Zm3.5768-27.2946v9.857h3.6615A6.9557,6.9557,0,0,0,63.37,96.4135a4.9317,4.9317,0,0,0,1.682-3.9917q0-4.45-5.8551-4.4495Zm0,13.0721v10.9868h4.8547a7.2722,7.2722,0,0,0,4.8856-1.4908,5.1034,5.1034,0,0,0,1.7358-4.0878q0-5.4071-7.3665-5.4082Zm23.8594-14.719a2.1645,2.1645,0,0,0-.655-1.5858,2.2111,2.2111,0,0,0-1.6288-.6568,2.156,2.156,0,0,0-1.6178.6665,2.1851,2.1851,0,0,0-.6459,1.5761,2.156,2.156,0,0,0,.6556,1.639,2.3562,2.3562,0,0,0,3.2157-.0206,2.1478,2.1478,0,0,0,.6762-1.6184m-.5927,7.2739H74.885v21.6579h3.4686Zm23.762,8.4068a10.296,10.296,0,0,0-1.8713-6.599A6.5824,6.5824,0,0,0,94.7975,93.08a7.7783,7.7783,0,0,0-7.107,4.1242h-.0847V93.6084H84.1367v21.6591h3.4691v-12.353A7.1528,7.1528,0,0,1,89.33,97.9763a5.5075,5.5075,0,0,1,4.2832-1.9348q5.034,0,5.0343,6.873v12.353h3.4686Zm24.4865,11.5269q0,11.907-11.42,11.9079a15.69,15.69,0,0,1-7.023-1.5017l.9078-2.995a12.1666,12.1666,0,0,0,6.0511,1.5567q8.0142,0,8.016-8.4811V111.629h-.0853a8.1019,8.1019,0,0,1-7.4445,4.1671,8.338,8.338,0,0,1-7.8467-5.0549,13.24,13.24,0,0,1-1.1212-5.6059q0-5.54,2.6974-8.798a8.8928,8.8928,0,0,1,7.2219-3.2575,7.0607,7.0607,0,0,1,6.4931,3.5109h.0853V93.6084h3.4685Zm-3.4685-8.0584v-3.1934a6.05,6.05,0,0,0-1.7981-4.4319,5.847,5.847,0,0,0-4.2941-1.8078,6.0018,6.0018,0,0,0-5.0434,2.3479,10.478,10.478,0,0,0-1.8089,6.5354,8.9325,8.9325,0,0,0,1.7351,5.7317,5.6146,5.6146,0,0,0,4.631,2.1785,6.06,6.06,0,0,0,4.738-2.0624,7.6577,7.6577,0,0,0,1.84-5.298"/><polygon class="a" points="13.663 91.336 18.08 102.35 25.127 105.634 10.787 113.888 10.787 78.113 0.609 74.55 0.609 119.747 10.789 125.45 36.238 110.81 36.238 99.237 13.663 91.336"/><path class="a" d="M154.868,115.3625v-4.3776h-.0853a8.5126,8.5126,0,0,1-3.0645,3.5768,7.8373,7.8373,0,0,1-4.41,1.3348,6.95,6.95,0,0,1-4.8789-1.7085,5.7638,5.7638,0,0,1-1.8689-4.4629q0-5.7435,7.5806-6.9189l6.7266-1.0033q0-7.0471-5.295-7.0466a10.7873,10.7873,0,0,0-7.026,2.9037V95.29a10.818,10.818,0,0,1,3.3421-1.6336,12.7475,12.7475,0,0,1,3.8756-.6937,6.6064,6.6064,0,0,1,5.2315,2.0817q1.8372,2.082,1.8362,6.0964v14.2219ZM142.6323,109.64a4.1866,4.1866,0,0,0,1.3239,3.2562,5.0915,5.0915,0,0,0,3.5665,1.2066,6.7187,6.7187,0,0,0,5.2636-2.3593,8.7517,8.7517,0,0,0,2.0817-6.0118v-2.1349l-6.022.8751q-3.6506.5553-4.9321,1.6765a4.4007,4.4007,0,0,0-1.2816,3.4916"/><path class="a" d="M178.934,115.3624v-3.9717h-.0859a8.1053,8.1053,0,0,1-3.1922,3.2883,9.1857,9.1857,0,0,1-4.6872,1.2175,8.2366,8.2366,0,0,1-6.62-2.99,12.1532,12.1532,0,0,1-2.52-8.0928,14.4358,14.4358,0,0,1,1.2489-6.1079,9.8831,9.8831,0,0,1,3.5453-4.2275,9.2559,9.2559,0,0,1,5.22-1.5163,7.2717,7.2717,0,0,1,7.0042,4.0359h.0859V82.9905h1.9643v32.3719Zm0-13.3032a7.2337,7.2337,0,0,0-1.9971-5.2315,6.8168,6.8168,0,0,0-5.1354-2.0714,7.06,7.06,0,0,0-5.7014,2.69,10.9536,10.9536,0,0,0-2.2209,7.1959,11.143,11.143,0,0,0,1.9433,6.8978,6.2682,6.2682,0,0,0,5.2744,2.5625,7.5794,7.5794,0,0,0,5.68-2.21,7.8925,7.8925,0,0,0,2.1568-5.7553Z"/><path class="a" d="M186.7709,114.4015v-2.37a8.4982,8.4982,0,0,0,2.5946,1.4624,8.1829,8.1829,0,0,0,2.8293.609q5.1465,0,5.1468-4.2069a3.2293,3.2293,0,0,0-1.036-2.3811,13.2714,13.2714,0,0,0-3.7691-2.21,12.8165,12.8165,0,0,1-4.3237-2.701,5.16,5.16,0,0,1-1.356-3.6839,5.3214,5.3214,0,0,1,2.0176-4.2814,7.6389,7.6389,0,0,1,5.05-1.6759,9.6125,9.6125,0,0,1,4.8263,1.1528v2.2208a9.2093,9.2093,0,0,0-5.04-1.58,5.1824,5.1824,0,0,0-3.47,1.1316,3.6371,3.6371,0,0,0-1.3342,2.9036,4.0447,4.0447,0,0,0,.3949,1.9644,4.2326,4.2326,0,0,0,1.3451,1.3566,17.2392,17.2392,0,0,0,2.7651,1.4406,15.3864,15.3864,0,0,1,4.7411,2.8831,4.8612,4.8612,0,0,1,1.2386,3.4595,5.359,5.359,0,0,1-2.0073,4.3454,8.1265,8.1265,0,0,1-5.3386,1.6554,8.8534,8.8534,0,0,1-5.2745-1.4951"/></svg>