<svg xmlns="http://www.w3.org/2000/svg" width="124" height="124" viewBox="0 0 124 124"><defs><style>.a,.b,.d,.e{fill:none;stroke:#222;stroke-width:2.8381px;}.a,.d{stroke-linecap:round;}.a,.e{stroke-miterlimit:10;}.b,.d{stroke-linejoin:round;}.c{fill:#f1494c;}</style></defs><polyline class="a" points="20.844 49.284 20.844 28.129 117.282 28.129 117.282 86.273 54.918 86.273"/><path class="a" d="M118.4518,28.1288H19.6744a3.5482,3.5482,0,0,1-3.5482-3.5482h0a3.5482,3.5482,0,0,1,3.5482-3.5482h98.7774A3.5482,3.5482,0,0,1,122,24.5806h0A3.5482,3.5482,0,0,1,118.4518,28.1288Z"/><path class="b" d="M52.5864,55.8648H13.0306S9.8353,78.5231,26.6838,95.8075h12.25C55.7819,78.5231,52.5864,55.8648,52.5864,55.8648Z"/><path class="c" d="M29.0861,90.3133C20.1,80.0344,18.4621,67.8983,18.31,61.359H47.3082C47.1562,67.89,45.52,80.0309,36.5308,90.3133Z"/><path class="b" d="M53.2218,64.0748H63.6171s-1.06,14.1506-13.9253,14.1506"/><path class="b" d="M12.3953,64.0748H2S3.06,78.2254,15.9252,78.2254"/><path class="b" d="M43.2444,121H22.3726a9.44,9.44,0,0,1,1.4525-5.4712,6.5339,6.5339,0,0,1,1.9374-1.9594c1.9339-1.2408,4.0418-3.3045,4.3474-5.7287.5813-4.6107-3.4548-7.8732-3.4548-7.8732l.18-4.16H38.8176l.18,4.16s-4.0718,3.2625-3.4906,7.8732c.3057,2.4242,2.4135,4.4879,4.3475,5.7287a6.5352,6.5352,0,0,1,1.9375,1.9594A9.4408,9.4408,0,0,1,43.2444,121Z"/><line class="d" x1="17.5058" y1="121" x2="48.1112" y2="121"/><polyline class="a" points="69.979 68.98 85.619 53.34 92.501 60.222 108.141 44.581"/><polyline class="e" points="101.291 44.581 108.141 44.581 108.141 51.431"/></svg>