<svg xmlns="http://www.w3.org/2000/svg" width="124" height="124" viewBox="0 0 124 124"><defs><style>.a,.c{fill:none;stroke-linecap:round;stroke-linejoin:round;}.a{stroke:#222;stroke-width:2.8381px;}.b{fill:#f1494c;}.c{stroke:#fff;stroke-width:2.792px;}.d{fill:#454545;}</style></defs><polyline class="a" points="108.146 77.655 122 77.655 122 91.894 122 122 44.602 122 44.602 108.146"/><polygon class="b" points="94.111 94.111 94.11 63.801 108.146 63.801 108.146 108.146 30.749 108.146 30.749 94.111 94.111 94.111"/><polyline class="a" points="94.11 63.801 108.146 63.801 108.146 108.146 30.749 108.146 30.749 94.111"/><polyline class="a" points="79.397 49.698 94.292 49.698 94.292 94.043 16.895 94.043 16.895 79.15"/><path class="b" d="M79.3975,79.1484V34.8032H2V79.1484ZM40.6986,40.6513A16.3244,16.3244,0,1,1,24.3744,56.9757,16.3245,16.3245,0,0,1,40.6986,40.6513Z"/><path class="c" d="M66.1069,58.0776a.9275.9275,0,1,1,.9274.9274A.9274.9274,0,0,1,66.1069,58.0776Z"/><path class="c" d="M13.4358,58.0776a.9275.9275,0,1,1,.9274.9274A.9274.9274,0,0,1,13.4358,58.0776Z"/><path class="d" d="M42.38,46.8412a8.2,8.2,0,0,1,1.6092.283,7.4721,7.4721,0,0,1,1.3432.4477l-.0231,2.4829a12.0513,12.0513,0,0,0-1.8849-.57,8.9407,8.9407,0,0,0-2.1-.2605,3.631,3.631,0,0,0-2.5271.86,2.82,2.82,0,0,0-.9548,2.1915,3.7405,3.7405,0,0,0,.2755,1.4784,2.7093,2.7093,0,0,0,.7532,1.0417,12.1363,12.1363,0,0,0,2.1706,1.19l1.586.739a6.3352,6.3352,0,0,1,2.8163,2.2316,5.7787,5.7787,0,0,1,.8,3.1053,4.8666,4.8666,0,0,1-1.1756,3.2531,5.027,5.027,0,0,1-2.6824,1.6431L42.37,69.2135H39.804l.01-2.1137a6.0492,6.0492,0,0,1-2.8843-.8237l-.0016-2.5071a6.17,6.17,0,0,0,1.64.7525,6.5561,6.5561,0,0,0,2.0429.3629,2.9294,2.9294,0,0,0,2.1578-.78,2.6988,2.6988,0,0,0,.7862-2.0027,3.2672,3.2672,0,0,0-.282-1.3709,2.89,2.89,0,0,0-.8063-1.0487,11.2924,11.2924,0,0,0-2.0437-1.1556l-1.2365-.5782a7.3789,7.3789,0,0,1-3.0652-2.3994,6.3207,6.3207,0,0,1-.9677-3.6361,4.53,4.53,0,0,1,1.2976-3.2064A5.35,5.35,0,0,1,39.7727,47.02l.004-2.2818H42.37Z"/><rect class="a" x="18.5262" y="18.277" width="44.3452" height="77.3975" transform="translate(-16.277 97.6745) rotate(-90)"/></svg>