<svg xmlns="http://www.w3.org/2000/svg" width="124" height="124" viewBox="0 0 124 124"><defs><style>.a,.c,.d{fill:none;stroke:#222;stroke-linecap:round;stroke-width:2.8381px;}.a,.c{stroke-linejoin:round;}.b{fill:#f1494c;}.c{stroke-dasharray:0 7.5186;}.d{stroke-miterlimit:10;}</style></defs><path class="a" d="M113.9334,84.338H92.1427a5.4942,5.4942,0,0,0-5.4941,5.4939l0,10.9469a5.8739,5.8739,0,0,1-4.5631,5.7485,91.6027,91.6027,0,0,1-40.249.0242,5.8707,5.8707,0,0,1-4.529-5.74V89.8319a5.4939,5.4939,0,0,0-5.4939-5.4939H10.0232A5.4939,5.4939,0,0,0,4.529,89.8332l.0036,12.9124a7.4089,7.4089,0,0,0,4.28,6.7224,126.5347,126.5347,0,0,0,106.3307,0,7.4085,7.4085,0,0,0,4.28-6.7221l.0036-12.9124A5.4936,5.4936,0,0,0,113.9334,84.338Z"/><path class="b" d="M113.86,102.744l.0036-12.8419h-21.65v5.5167a60.7261,60.7261,0,0,1,11.4207,4.9241,34.6776,34.6776,0,0,1,7.0406,5.029c.7114-.3135,1.4231-.625,2.1306-.9524A1.8462,1.8462,0,0,0,113.86,102.744Z"/><path class="b" d="M11.02,102.744l-.0036-12.8419h21.65v5.5167a60.715,60.715,0,0,0-11.42,4.9241,34.6776,34.6776,0,0,0-7.0406,5.029c-.7114-.3135-1.4234-.625-2.1306-.9524A1.847,1.847,0,0,1,11.02,102.744Z"/><path class="a" d="M84.45,73.6032a31.3593,31.3593,0,0,1-2.44,2.2538,31.0952,31.0952,0,1,1-.6014-48.3718"/><line class="a" x1="90.4438" y1="38.9587" x2="90.4438" y2="38.9587"/><path class="c" d="M92.7631,46.3317a31.2408,31.2408,0,0,1-2.5007,18.926"/><line class="a" x1="88.3781" y1="68.6525" x2="88.3781" y2="68.6525"/><line class="a" x1="87.209" y1="33.5764" x2="87.209" y2="23.1744"/><line class="a" x1="87.209" y1="33.5764" x2="76.8067" y2="33.5764"/><path class="d" d="M62.6713,33.4545A18.3079,18.3079,0,0,1,80.9792,51.7624"/><path class="d" d="M44.3635,51.7624A18.3078,18.3078,0,0,1,62.6713,33.4545"/><path class="d" d="M80.9792,51.7624a18.3079,18.3079,0,0,1-36.6157,0"/><polyline class="d" points="62.671 46.998 62.671 51.762 72.089 51.762"/><line class="d" x1="62.6713" y1="64.3137" x2="62.6713" y2="61.927"/><line class="d" x1="62.6713" y1="39.211" x2="62.6713" y2="41.5977"/><line class="d" x1="50.12" y1="51.7624" x2="52.5067" y2="51.7624"/></svg>